<svg xmlns="http://www.w3.org/2000/svg" width="1500" height="620"><rect width="1500" height="620" fill="#0b0f11"/><style>.t{font-family:Arial,sans-serif}.w{fill:#f4f4f0}.a{fill:#f5a623}.m{fill:#afb4b1}.b{fill:#111618;stroke:#433b27;stroke-width:2}</style><text x="65" y="82" class="t w" font-size="42" font-weight="700">CLAUDE FASTAPI PACK</text><text x="65" y="125" class="t m" font-size="23">Explicit architecture and review guardrails for FastAPI engineering.</text><g class="t" text-anchor="middle">
<rect x="115" y="165" width="370" height="124" rx="14" class="b"/><text x="300" y="218" class="a" font-size="21" font-weight="700">ARCHITECTURE</text><text x="300" y="252" class="w" font-size="17">structure · boundaries</text><rect x="565" y="165" width="370" height="124" rx="14" class="b"/><text x="750" y="218" class="a" font-size="21" font-weight="700">API DESIGN</text><text x="750" y="252" class="w" font-size="17">contracts · responses</text><rect x="1015" y="165" width="370" height="124" rx="14" class="b"/><text x="1200" y="218" class="a" font-size="21" font-weight="700">ASYNC / DB</text><text x="1200" y="252" class="w" font-size="17">SQLAlchemy · patterns</text>
<rect x="115" y="335" width="370" height="124" rx="14" class="b"/><text x="300" y="388" class="a" font-size="21" font-weight="700">MIGRATIONS</text><text x="300" y="422" class="w" font-size="17">schema safety</text><rect x="565" y="335" width="370" height="124" rx="14" class="b"/><text x="750" y="388" class="a" font-size="21" font-weight="700">TESTING</text><text x="750" y="422" class="w" font-size="17">verification</text><rect x="1015" y="335" width="370" height="124" rx="14" class="b"/><text x="1200" y="388" class="a" font-size="21" font-weight="700">PR REVIEW</text><text x="1200" y="422" class="w" font-size="17">final gate</text>
<text x="750" y="545" class="a" font-size="20" font-weight="700">VISIBLE RULES  →  SCOPED RESPONSIBILITIES  →  HUMAN REVIEW</text></g></svg>